<svg xmlns="http://www.w3.org/2000/svg" viewBox="0 0 41 88"><defs><style>.cls-1{fill:#fff;}.cls-2{fill:none;stroke:#fff;stroke-miterlimit:10;stroke-width:3px;}</style></defs><title>Scroll Down</title><g id="Layer_2" data-name="Layer 2"><g id="Layer_1-2" data-name="Layer 1"><polygon id="Arrow_Down" data-name="Arrow Down" class="cls-1" points="14 60 27 60 27 73 34 73 21 88 7 73 14 73 14 60 14 60"/><path id="Mouse" class="cls-2" d="M29.5,63a16.93,16.93,0,0,0,10-15.4V18.39A16.94,16.94,0,0,0,22.61,1.5H18.39A16.94,16.94,0,0,0,1.5,18.39V47.61A16.93,16.93,0,0,0,11.5,63"/><rect id="Lower_Stripe" data-name="Lower Stripe" class="cls-1" x="14" y="54" width="13" height="4"/><rect id="Upper_Stripe" data-name="Upper Stripe" class="cls-1" x="14" y="48" width="13" height="4"/><rect id="Mouse_Wheel" data-name="Mouse Wheel" class="cls-1" x="19" y="14" width="3" height="12" rx="1.04"/></g></g></svg>